# xmcd
#
# Track frame offsets: 
#        150
#        13060
#        31409
#        47507
#        61241
#        77175
#        94443
#        108155
#        123325
#        136945
#        153260
#        176813
#        184326
#        212712
#        224032
#        231703
#        251513
#        286019
#
# Disc length: 4282 seconds
#
# Revision: 7
# Processed by: cddbd v1.5.2PL0 Copyright (c) Steve Scherf et al.
# Submitted via: ExactAudioCopyFreeDBPlugin 1.0
#
DISCID=0810b812
DTITLE=Green, Peter - Fleetwood Mac - Jumping At Shadows - The Blues Ye
DTITLE=ars [Disc 2]
DYEAR=2002
DGENRE=Blues
TTITLE0=Fleetwood Mac - Man Of The World (Single Version) 7"  UK#2  UK
TTITLE0=Immediate IM 08O 1969-04
TTITLE1=Fleetwood Mac - Show-Biz Blues (outtake from Then Play On) 196
TTITLE1=9-09-09
TTITLE2=Fleetwood Mac - Buzz Me Baby-Night Ride, Aoelian Hall, London 
TTITLE2=rec 1968-04-16, 1968-04-17
TTITLE3=Fleetwood Mac - Blues In B Flat Minor) (this would become Befo
TTITLE3=re the Beginning on Then Play On) (unissued instr) (Man Of The
TTITLE3=World 7'' session outtake) 1969-01
TTITLE4=Brunning Sunflower Blues Band - It Takes Time (from Brunning S
TTITLE4=unflower Blues Band LP Trackside Blues) 1969
TTITLE5=Green, Peter and Nick Pickett - Leaving Town Blues-Top Gear, BBC
TTITLE5=Playhouse Theatre, London rec 1970-04-27, aired 1970-05-23
TTITLE6=Fleetwood Mac - The Sun Is Shining-Top Gear, Aoelian Hall, Lon
TTITLE6=don rec 1968-01-16, 1968-01-21 [Show-Biz Blues CD1-4]
TTITLE7=Brunning Sunflower Blues Band - Uranus (outtake from Brunning 
TTITLE7=Sunflower Blues Band LP Trackside Blues) 1969
TTITLE8=Fleetwood Mac - Miind Of My Own-Top Gear-BBC Studio 1, London 
TTITLE8=rec 1968-08-27, 1968-09-11
TTITLE9=Fleetwood Mac - How Blue Can You Get?-Night Ride, Aoelian Hall
TTITLE9=, London rec 1968-04-16, 1968-04-17
TTITLE10=Green, Peter and Duster Bennett - Trying So Hard To Forget (Pet
TTITLE10=er Green w Duster Bennett) [Out In The Blue CD-5] rec 1968-09
TTITLE10=07 to 09
TTITLE11=Green, Peter and Duster Bennett - Two Harps (Peter Green w Dust
TTITLE11=er Bennett) [Out In The Blue CD-9] rec 1968-09-07 to 09
TTITLE12=Bennett, Duster and Peter Green - Thinking About A Woman (Peter
TTITLE12=Green w Duster Bennett) [Out In The Blue CD-8] rec 1968-09-0
TTITLE12=7 to 09
TTITLE13=Green, Peter and Duster Bennett - Kind Hearted Woman (Peter Gre
TTITLE13=en w Duster Bennett) [Out In The Blue CD-6] rec 1968-09-07 to
TTITLE13=09
TTITLE14=Green, Peter and Duster Bennett - Coming, I'm Coming (Peter Gre
TTITLE14=en w Duster Bennett) [Out In The Blue CD-7] rec 1968-09-07 to
TTITLE14=09
TTITLE15=Fleetwood Mac - Stranger Blues-Peel Sunday Concert, BBC Paris
TTITLE15=Cinema, London rec 1970-04-09, aired 1970-04-19
TTITLE16=Fleetwood Mac - Coming Your Way-Peel Sunday Concert, BBC Pari
TTITLE16=s Cinema, London rec 1970-04-09, aired 1970-04-19
TTITLE17=Fleetwood Mac - Rattlesnake Shake-Peel Sunday Concert, BBC Pa
TTITLE17=ris Cinema, London rec 1970-04-09, aired 1970-04-19
EXTD=YEAR: 2002
EXTT0=
EXTT1=
EXTT2=
EXTT3=
EXTT4=
EXTT5=
EXTT6=
EXTT7=
EXTT8=
EXTT9=
EXTT10=
EXTT11=
EXTT12=
EXTT13=
EXTT14=
EXTT15=
EXTT16=
EXTT17=
PLAYORDER=
